<svg width="74" height="13" viewBox="0 0 74 13" fill="none" xmlns="http://www.w3.org/2000/svg">
<path d="M1.81818 0.863636V12.5H0.409091V0.863636H1.81818ZM5.80256 7.25V12.5H4.46165V3.77273H5.7571V5.13636H5.87074C6.07528 4.69318 6.38589 4.33712 6.80256 4.06818C7.21922 3.79545 7.7571 3.65909 8.41619 3.65909C9.0071 3.65909 9.52415 3.7803 9.96733 4.02273C10.4105 4.26136 10.7552 4.625 11.0014 5.11364C11.2476 5.59848 11.3707 6.21212 11.3707 6.95455V12.5H10.0298V7.04545C10.0298 6.35985 9.8518 5.82576 9.49574 5.44318C9.13968 5.05682 8.65104 4.86364 8.02983 4.86364C7.6018 4.86364 7.21922 4.95644 6.8821 5.14205C6.54877 5.32765 6.28551 5.59848 6.09233 5.95455C5.89915 6.31061 5.80256 6.74242 5.80256 7.25ZM20.0028 5.72727L18.7983 6.06818C18.7225 5.86742 18.6108 5.67235 18.4631 5.48295C18.3191 5.28977 18.1222 5.13068 17.8722 5.00568C17.6222 4.88068 17.3021 4.81818 16.9119 4.81818C16.3778 4.81818 15.9328 4.94129 15.5767 5.1875C15.2244 5.42992 15.0483 5.73864 15.0483 6.11364C15.0483 6.44697 15.1695 6.71023 15.4119 6.90341C15.6544 7.09659 16.0331 7.25758 16.5483 7.38636L17.8438 7.70455C18.6241 7.89394 19.2055 8.18371 19.5881 8.57386C19.9706 8.96023 20.1619 9.45833 20.1619 10.0682C20.1619 10.5682 20.018 11.0152 19.7301 11.4091C19.446 11.803 19.0483 12.1136 18.5369 12.3409C18.0256 12.5682 17.4309 12.6818 16.7528 12.6818C15.8627 12.6818 15.1259 12.4886 14.5426 12.1023C13.9593 11.7159 13.59 11.1515 13.4347 10.4091L14.7074 10.0909C14.8286 10.5606 15.0578 10.9129 15.3949 11.1477C15.7358 11.3826 16.1809 11.5 16.7301 11.5C17.3551 11.5 17.8513 11.3674 18.2188 11.1023C18.59 10.8333 18.7756 10.5114 18.7756 10.1364C18.7756 9.83333 18.6695 9.57955 18.4574 9.375C18.2453 9.16667 17.9195 9.01136 17.4801 8.90909L16.0256 8.56818C15.2263 8.37879 14.6392 8.08523 14.2642 7.6875C13.893 7.28598 13.7074 6.78409 13.7074 6.18182C13.7074 5.68939 13.8456 5.25379 14.1222 4.875C14.4025 4.49621 14.7831 4.19886 15.2642 3.98295C15.7491 3.76705 16.2983 3.65909 16.9119 3.65909C17.7756 3.65909 18.4536 3.84848 18.946 4.22727C19.4422 4.60606 19.7945 5.10606 20.0028 5.72727ZM25.9759 3.77273V4.90909H21.4531V3.77273H25.9759ZM22.7713 1.68182H24.1122V10C24.1122 10.3788 24.1671 10.6629 24.277 10.8523C24.3906 11.0379 24.5346 11.1629 24.7088 11.2273C24.8868 11.2879 25.0743 11.3182 25.2713 11.3182C25.419 11.3182 25.5402 11.3106 25.6349 11.2955C25.7296 11.2765 25.8054 11.2614 25.8622 11.25L26.1349 12.4545C26.044 12.4886 25.9171 12.5227 25.7543 12.5568C25.5914 12.5947 25.3849 12.6136 25.1349 12.6136C24.7562 12.6136 24.3849 12.5322 24.0213 12.3693C23.6615 12.2064 23.3622 11.9583 23.1236 11.625C22.8887 11.2917 22.7713 10.8712 22.7713 10.3636V1.68182ZM30.5611 12.7045C30.008 12.7045 29.5062 12.6004 29.0554 12.392C28.6046 12.1799 28.2467 11.875 27.9815 11.4773C27.7164 11.0758 27.5838 10.5909 27.5838 10.0227C27.5838 9.52273 27.6823 9.11742 27.8793 8.80682C28.0762 8.49242 28.3395 8.24621 28.669 8.06818C28.9986 7.89015 29.3622 7.75758 29.7599 7.67045C30.1615 7.57955 30.5649 7.50758 30.9702 7.45455C31.5005 7.38636 31.9304 7.33523 32.2599 7.30114C32.5933 7.26326 32.8357 7.20076 32.9872 7.11364C33.1425 7.02652 33.2202 6.875 33.2202 6.65909V6.61364C33.2202 6.05303 33.0668 5.61742 32.7599 5.30682C32.4569 4.99621 31.9967 4.84091 31.3793 4.84091C30.7391 4.84091 30.2372 4.98106 29.8736 5.26136C29.5099 5.54167 29.2543 5.84091 29.1065 6.15909L27.8338 5.70455C28.0611 5.17424 28.3641 4.76136 28.7429 4.46591C29.1255 4.16667 29.5421 3.95833 29.9929 3.84091C30.4474 3.7197 30.8944 3.65909 31.3338 3.65909C31.6141 3.65909 31.9361 3.69318 32.2997 3.76136C32.6671 3.82576 33.0213 3.96023 33.3622 4.16477C33.7069 4.36932 33.9929 4.67803 34.2202 5.09091C34.4474 5.50379 34.5611 6.05682 34.5611 6.75V12.5H33.2202V11.3182H33.152C33.0611 11.5076 32.9096 11.7102 32.6974 11.9261C32.4853 12.142 32.2031 12.3258 31.8509 12.4773C31.4986 12.6288 31.0687 12.7045 30.5611 12.7045ZM30.7656 11.5C31.2959 11.5 31.7429 11.3958 32.1065 11.1875C32.474 10.9792 32.7505 10.7102 32.9361 10.3807C33.1255 10.0511 33.2202 9.70455 33.2202 9.34091V8.11364C33.1634 8.18182 33.0384 8.24432 32.8452 8.30114C32.6558 8.35417 32.4361 8.40151 32.1861 8.44318C31.9399 8.48106 31.6993 8.51515 31.4645 8.54545C31.2334 8.57197 31.0459 8.5947 30.902 8.61364C30.5535 8.65909 30.2277 8.73295 29.9247 8.83523C29.6255 8.93371 29.383 9.08333 29.1974 9.28409C29.0156 9.48106 28.9247 9.75 28.9247 10.0909C28.9247 10.5568 29.0971 10.9091 29.4418 11.1477C29.7902 11.3826 30.2315 11.5 30.7656 11.5ZM41.4517 0.863636H43.8835V8.97727C43.8835 9.72727 43.715 10.3788 43.3778 10.9318C43.0445 11.4848 42.5805 11.911 41.9858 12.2102C41.3911 12.5095 40.6998 12.6591 39.9119 12.6591C39.2112 12.6591 38.5748 12.536 38.0028 12.2898C37.4347 12.0398 36.9839 11.661 36.6506 11.1534C36.3172 10.642 36.1525 10 36.1562 9.22727H38.6051C38.6127 9.53409 38.6752 9.79735 38.7926 10.017C38.9138 10.233 39.0786 10.3996 39.2869 10.517C39.4991 10.6307 39.7491 10.6875 40.0369 10.6875C40.34 10.6875 40.5956 10.6231 40.804 10.4943C41.0161 10.3617 41.1771 10.1686 41.2869 9.91477C41.3968 9.66098 41.4517 9.34848 41.4517 8.97727V0.863636ZM49.8153 12.6705C48.9328 12.6705 48.1695 12.483 47.5256 12.108C46.8854 11.7292 46.3911 11.2027 46.0426 10.5284C45.6941 9.85038 45.5199 9.06439 45.5199 8.17045C45.5199 7.26894 45.6941 6.48106 46.0426 5.80682C46.3911 5.12879 46.8854 4.60227 47.5256 4.22727C48.1695 3.84848 48.9328 3.65909 49.8153 3.65909C50.6979 3.65909 51.4593 3.84848 52.0994 4.22727C52.7434 4.60227 53.2396 5.12879 53.5881 5.80682C53.9366 6.48106 54.1108 7.26894 54.1108 8.17045C54.1108 9.06439 53.9366 9.85038 53.5881 10.5284C53.2396 11.2027 52.7434 11.7292 52.0994 12.108C51.4593 12.483 50.6979 12.6705 49.8153 12.6705ZM49.8267 10.7955C50.2282 10.7955 50.5634 10.6818 50.8324 10.4545C51.1013 10.2235 51.304 9.90909 51.4403 9.51136C51.5805 9.11364 51.6506 8.66098 51.6506 8.15341C51.6506 7.64583 51.5805 7.19318 51.4403 6.79545C51.304 6.39773 51.1013 6.08333 50.8324 5.85227C50.5634 5.62121 50.2282 5.50568 49.8267 5.50568C49.4214 5.50568 49.0805 5.62121 48.804 5.85227C48.5313 6.08333 48.3248 6.39773 48.1847 6.79545C48.0483 7.19318 47.9801 7.64583 47.9801 8.15341C47.9801 8.66098 48.0483 9.11364 48.1847 9.51136C48.3248 9.90909 48.5313 10.2235 48.804 10.4545C49.0805 10.6818 49.4214 10.7955 49.8267 10.7955ZM55.7301 12.5V0.863636H58.1506V5.23864H58.2244C58.3305 5.00379 58.4839 4.76515 58.6847 4.52273C58.8892 4.27652 59.1544 4.07197 59.4801 3.90909C59.8097 3.74242 60.2188 3.65909 60.7074 3.65909C61.3438 3.65909 61.9309 3.82576 62.4688 4.15909C63.0066 4.48864 63.4366 4.98674 63.7585 5.65341C64.0805 6.31629 64.2415 7.14773 64.2415 8.14773C64.2415 9.12121 64.0843 9.94318 63.7699 10.6136C63.4593 11.2803 63.035 11.786 62.4972 12.1307C61.9631 12.4716 61.3646 12.642 60.7017 12.642C60.232 12.642 59.8324 12.5644 59.5028 12.4091C59.1771 12.2538 58.91 12.0587 58.7017 11.8239C58.4934 11.5852 58.3343 11.3447 58.2244 11.1023H58.1165V12.5H55.7301ZM58.0994 8.13636C58.0994 8.6553 58.1714 9.10795 58.3153 9.49432C58.4593 9.88068 58.6676 10.1818 58.9403 10.3977C59.2131 10.6098 59.5445 10.7159 59.9347 10.7159C60.3286 10.7159 60.6619 10.608 60.9347 10.392C61.2074 10.1723 61.4138 9.86932 61.554 9.48295C61.6979 9.0928 61.7699 8.64394 61.7699 8.13636C61.7699 7.63258 61.6998 7.18939 61.5597 6.80682C61.4195 6.42424 61.2131 6.125 60.9403 5.90909C60.6676 5.69318 60.3324 5.58523 59.9347 5.58523C59.5407 5.58523 59.2074 5.68939 58.9347 5.89773C58.6657 6.10606 58.4593 6.40151 58.3153 6.78409C58.1714 7.16667 58.0994 7.61742 58.0994 8.13636ZM73.1179 6.26136L70.902 6.39773C70.8641 6.20833 70.7827 6.03788 70.6577 5.88636C70.5327 5.73106 70.3679 5.60795 70.1634 5.51705C69.9626 5.42235 69.7221 5.375 69.4418 5.375C69.0668 5.375 68.7505 5.45455 68.4929 5.61364C68.2353 5.76894 68.1065 5.97727 68.1065 6.23864C68.1065 6.44697 68.1899 6.62311 68.3565 6.76705C68.5232 6.91098 68.8092 7.02652 69.2145 7.11364L70.794 7.43182C71.6425 7.60606 72.2751 7.88636 72.6918 8.27273C73.1084 8.65909 73.3168 9.16667 73.3168 9.79545C73.3168 10.3674 73.1482 10.8693 72.8111 11.3011C72.4777 11.733 72.0194 12.0701 71.4361 12.3125C70.8565 12.5511 70.188 12.6705 69.4304 12.6705C68.2751 12.6705 67.3546 12.4299 66.669 11.9489C65.9872 11.464 65.5876 10.8049 65.4702 9.97159L67.8509 9.84659C67.9228 10.1989 68.0971 10.4678 68.3736 10.6534C68.6501 10.8352 69.0043 10.9261 69.4361 10.9261C69.8603 10.9261 70.2012 10.8447 70.4588 10.6818C70.7202 10.5152 70.8527 10.3011 70.8565 10.0398C70.8527 9.82008 70.7599 9.64015 70.5781 9.5C70.3963 9.35606 70.116 9.24621 69.7372 9.17045L68.2259 8.86932C67.3736 8.69886 66.7391 8.40341 66.3224 7.98295C65.9096 7.5625 65.7031 7.02652 65.7031 6.375C65.7031 5.81439 65.8546 5.33144 66.1577 4.92614C66.4645 4.52083 66.8944 4.20833 67.4474 3.98864C68.0043 3.76894 68.6558 3.65909 69.402 3.65909C70.5043 3.65909 71.3717 3.89205 72.0043 4.35795C72.6406 4.82386 73.0118 5.45833 73.1179 6.26136Z" fill="#212529"/>
</svg>
