<svg width="109" height="24" viewBox="0 0 109 24" fill="none" xmlns="http://www.w3.org/2000/svg">
<path d="M20 7H4C2.89543 7 2 7.89543 2 9V19C2 20.1046 2.89543 21 4 21H20C21.1046 21 22 20.1046 22 19V9C22 7.89543 21.1046 7 20 7Z" stroke="#007EC1" stroke-width="2" stroke-linecap="round" stroke-linejoin="round"/>
<path d="M16 21V5C16 4.46957 15.7893 3.96086 15.4142 3.58579C15.0391 3.21071 14.5304 3 14 3H10C9.46957 3 8.96086 3.21071 8.58579 3.58579C8.21071 3.96086 8 4.46957 8 5V21" stroke="#007EC1" stroke-width="2" stroke-linecap="round" stroke-linejoin="round"/>
<path d="M36.8182 5.86364V17.5H35.4091V5.86364H36.8182ZM40.8026 12.25V17.5H39.4616V8.77273H40.7571V10.1364H40.8707C41.0753 9.69318 41.3859 9.33712 41.8026 9.06818C42.2192 8.79545 42.7571 8.65909 43.4162 8.65909C44.0071 8.65909 44.5241 8.7803 44.9673 9.02273C45.4105 9.26136 45.7552 9.625 46.0014 10.1136C46.2476 10.5985 46.3707 11.2121 46.3707 11.9545V17.5H45.0298V12.0455C45.0298 11.3598 44.8518 10.8258 44.4957 10.4432C44.1397 10.0568 43.651 9.86364 43.0298 9.86364C42.6018 9.86364 42.2192 9.95644 41.8821 10.142C41.5488 10.3277 41.2855 10.5985 41.0923 10.9545C40.8991 11.3106 40.8026 11.7424 40.8026 12.25ZM55.0028 10.7273L53.7983 11.0682C53.7225 10.8674 53.6108 10.6723 53.4631 10.483C53.3191 10.2898 53.1222 10.1307 52.8722 10.0057C52.6222 9.88068 52.3021 9.81818 51.9119 9.81818C51.3778 9.81818 50.9328 9.94129 50.5767 10.1875C50.2244 10.4299 50.0483 10.7386 50.0483 11.1136C50.0483 11.447 50.1695 11.7102 50.4119 11.9034C50.6544 12.0966 51.0331 12.2576 51.5483 12.3864L52.8438 12.7045C53.6241 12.8939 54.2055 13.1837 54.5881 13.5739C54.9706 13.9602 55.1619 14.4583 55.1619 15.0682C55.1619 15.5682 55.018 16.0152 54.7301 16.4091C54.446 16.803 54.0483 17.1136 53.5369 17.3409C53.0256 17.5682 52.4309 17.6818 51.7528 17.6818C50.8627 17.6818 50.1259 17.4886 49.5426 17.1023C48.9593 16.7159 48.59 16.1515 48.4347 15.4091L49.7074 15.0909C49.8286 15.5606 50.0578 15.9129 50.3949 16.1477C50.7358 16.3826 51.1809 16.5 51.7301 16.5C52.3551 16.5 52.8513 16.3674 53.2188 16.1023C53.59 15.8333 53.7756 15.5114 53.7756 15.1364C53.7756 14.8333 53.6695 14.5795 53.4574 14.375C53.2453 14.1667 52.9195 14.0114 52.4801 13.9091L51.0256 13.5682C50.2263 13.3788 49.6392 13.0852 49.2642 12.6875C48.893 12.286 48.7074 11.7841 48.7074 11.1818C48.7074 10.6894 48.8456 10.2538 49.1222 9.875C49.4025 9.49621 49.7831 9.19886 50.2642 8.98295C50.7491 8.76705 51.2983 8.65909 51.9119 8.65909C52.7756 8.65909 53.4536 8.84848 53.946 9.22727C54.4422 9.60606 54.7945 10.1061 55.0028 10.7273ZM60.9759 8.77273V9.90909H56.4531V8.77273H60.9759ZM57.7713 6.68182H59.1122V15C59.1122 15.3788 59.1671 15.6629 59.277 15.8523C59.3906 16.0379 59.5346 16.1629 59.7088 16.2273C59.8868 16.2879 60.0743 16.3182 60.2713 16.3182C60.419 16.3182 60.5402 16.3106 60.6349 16.2955C60.7296 16.2765 60.8054 16.2614 60.8622 16.25L61.1349 17.4545C61.044 17.4886 60.9171 17.5227 60.7543 17.5568C60.5914 17.5947 60.3849 17.6136 60.1349 17.6136C59.7562 17.6136 59.3849 17.5322 59.0213 17.3693C58.6615 17.2064 58.3622 16.9583 58.1236 16.625C57.8887 16.2917 57.7713 15.8712 57.7713 15.3636V6.68182ZM65.5611 17.7045C65.008 17.7045 64.5062 17.6004 64.0554 17.392C63.6046 17.1799 63.2467 16.875 62.9815 16.4773C62.7164 16.0758 62.5838 15.5909 62.5838 15.0227C62.5838 14.5227 62.6823 14.1174 62.8793 13.8068C63.0762 13.4924 63.3395 13.2462 63.669 13.0682C63.9986 12.8902 64.3622 12.7576 64.7599 12.6705C65.1615 12.5795 65.5649 12.5076 65.9702 12.4545C66.5005 12.3864 66.9304 12.3352 67.2599 12.3011C67.5933 12.2633 67.8357 12.2008 67.9872 12.1136C68.1425 12.0265 68.2202 11.875 68.2202 11.6591V11.6136C68.2202 11.053 68.0668 10.6174 67.7599 10.3068C67.4569 9.99621 66.9967 9.84091 66.3793 9.84091C65.7391 9.84091 65.2372 9.98106 64.8736 10.2614C64.5099 10.5417 64.2543 10.8409 64.1065 11.1591L62.8338 10.7045C63.0611 10.1742 63.3641 9.76136 63.7429 9.46591C64.1255 9.16667 64.5421 8.95833 64.9929 8.84091C65.4474 8.7197 65.8944 8.65909 66.3338 8.65909C66.6141 8.65909 66.9361 8.69318 67.2997 8.76136C67.6671 8.82576 68.0213 8.96023 68.3622 9.16477C68.7069 9.36932 68.9929 9.67803 69.2202 10.0909C69.4474 10.5038 69.5611 11.0568 69.5611 11.75V17.5H68.2202V16.3182H68.152C68.0611 16.5076 67.9096 16.7102 67.6974 16.9261C67.4853 17.142 67.2031 17.3258 66.8509 17.4773C66.4986 17.6288 66.0687 17.7045 65.5611 17.7045ZM65.7656 16.5C66.2959 16.5 66.7429 16.3958 67.1065 16.1875C67.474 15.9792 67.7505 15.7102 67.9361 15.3807C68.1255 15.0511 68.2202 14.7045 68.2202 14.3409V13.1136C68.1634 13.1818 68.0384 13.2443 67.8452 13.3011C67.6558 13.3542 67.4361 13.4015 67.1861 13.4432C66.9399 13.4811 66.6993 13.5152 66.4645 13.5455C66.2334 13.572 66.0459 13.5947 65.902 13.6136C65.5535 13.6591 65.2277 13.733 64.9247 13.8352C64.6255 13.9337 64.383 14.0833 64.1974 14.2841C64.0156 14.4811 63.9247 14.75 63.9247 15.0909C63.9247 15.5568 64.0971 15.9091 64.4418 16.1477C64.7902 16.3826 65.2315 16.5 65.7656 16.5ZM76.4517 5.86364H78.8835V13.9773C78.8835 14.7273 78.715 15.3788 78.3778 15.9318C78.0445 16.4848 77.5805 16.911 76.9858 17.2102C76.3911 17.5095 75.6998 17.6591 74.9119 17.6591C74.2112 17.6591 73.5748 17.536 73.0028 17.2898C72.4347 17.0398 71.9839 16.661 71.6506 16.1534C71.3172 15.642 71.1525 15 71.1562 14.2273H73.6051C73.6127 14.5341 73.6752 14.7973 73.7926 15.017C73.9138 15.233 74.0786 15.3996 74.2869 15.517C74.4991 15.6307 74.7491 15.6875 75.0369 15.6875C75.34 15.6875 75.5956 15.6231 75.804 15.4943C76.0161 15.3617 76.1771 15.1686 76.2869 14.9148C76.3968 14.661 76.4517 14.3485 76.4517 13.9773V5.86364ZM84.8153 17.6705C83.9328 17.6705 83.1695 17.483 82.5256 17.108C81.8854 16.7292 81.3911 16.2027 81.0426 15.5284C80.6941 14.8504 80.5199 14.0644 80.5199 13.1705C80.5199 12.2689 80.6941 11.4811 81.0426 10.8068C81.3911 10.1288 81.8854 9.60227 82.5256 9.22727C83.1695 8.84848 83.9328 8.65909 84.8153 8.65909C85.6979 8.65909 86.4593 8.84848 87.0994 9.22727C87.7434 9.60227 88.2396 10.1288 88.5881 10.8068C88.9366 11.4811 89.1108 12.2689 89.1108 13.1705C89.1108 14.0644 88.9366 14.8504 88.5881 15.5284C88.2396 16.2027 87.7434 16.7292 87.0994 17.108C86.4593 17.483 85.6979 17.6705 84.8153 17.6705ZM84.8267 15.7955C85.2282 15.7955 85.5634 15.6818 85.8324 15.4545C86.1013 15.2235 86.304 14.9091 86.4403 14.5114C86.5805 14.1136 86.6506 13.661 86.6506 13.1534C86.6506 12.6458 86.5805 12.1932 86.4403 11.7955C86.304 11.3977 86.1013 11.0833 85.8324 10.8523C85.5634 10.6212 85.2282 10.5057 84.8267 10.5057C84.4214 10.5057 84.0805 10.6212 83.804 10.8523C83.5313 11.0833 83.3248 11.3977 83.1847 11.7955C83.0483 12.1932 82.9801 12.6458 82.9801 13.1534C82.9801 13.661 83.0483 14.1136 83.1847 14.5114C83.3248 14.9091 83.5313 15.2235 83.804 15.4545C84.0805 15.6818 84.4214 15.7955 84.8267 15.7955ZM90.7301 17.5V5.86364H93.1506V10.2386H93.2244C93.3305 10.0038 93.4839 9.76515 93.6847 9.52273C93.8892 9.27652 94.1544 9.07197 94.4801 8.90909C94.8097 8.74242 95.2188 8.65909 95.7074 8.65909C96.3438 8.65909 96.9309 8.82576 97.4688 9.15909C98.0066 9.48864 98.4366 9.98674 98.7585 10.6534C99.0805 11.3163 99.2415 12.1477 99.2415 13.1477C99.2415 14.1212 99.0843 14.9432 98.7699 15.6136C98.4593 16.2803 98.035 16.786 97.4972 17.1307C96.9631 17.4716 96.3646 17.642 95.7017 17.642C95.232 17.642 94.8324 17.5644 94.5028 17.4091C94.1771 17.2538 93.91 17.0587 93.7017 16.8239C93.4934 16.5852 93.3343 16.3447 93.2244 16.1023H93.1165V17.5H90.7301ZM93.0994 13.1364C93.0994 13.6553 93.1714 14.108 93.3153 14.4943C93.4593 14.8807 93.6676 15.1818 93.9403 15.3977C94.2131 15.6098 94.5445 15.7159 94.9347 15.7159C95.3286 15.7159 95.6619 15.608 95.9347 15.392C96.2074 15.1723 96.4138 14.8693 96.554 14.483C96.6979 14.0928 96.7699 13.6439 96.7699 13.1364C96.7699 12.6326 96.6998 12.1894 96.5597 11.8068C96.4195 11.4242 96.2131 11.125 95.9403 10.9091C95.6676 10.6932 95.3324 10.5852 94.9347 10.5852C94.5407 10.5852 94.2074 10.6894 93.9347 10.8977C93.6657 11.1061 93.4593 11.4015 93.3153 11.7841C93.1714 12.1667 93.0994 12.6174 93.0994 13.1364ZM108.118 11.2614L105.902 11.3977C105.864 11.2083 105.783 11.0379 105.658 10.8864C105.533 10.7311 105.368 10.608 105.163 10.517C104.963 10.4223 104.722 10.375 104.442 10.375C104.067 10.375 103.75 10.4545 103.493 10.6136C103.235 10.7689 103.107 10.9773 103.107 11.2386C103.107 11.447 103.19 11.6231 103.357 11.767C103.523 11.911 103.809 12.0265 104.214 12.1136L105.794 12.4318C106.643 12.6061 107.275 12.8864 107.692 13.2727C108.108 13.6591 108.317 14.1667 108.317 14.7955C108.317 15.3674 108.148 15.8693 107.811 16.3011C107.478 16.733 107.019 17.0701 106.436 17.3125C105.857 17.5511 105.188 17.6705 104.43 17.6705C103.275 17.6705 102.355 17.4299 101.669 16.9489C100.987 16.464 100.588 15.8049 100.47 14.9716L102.851 14.8466C102.923 15.1989 103.097 15.4678 103.374 15.6534C103.65 15.8352 104.004 15.9261 104.436 15.9261C104.86 15.9261 105.201 15.8447 105.459 15.6818C105.72 15.5152 105.853 15.3011 105.857 15.0398C105.853 14.8201 105.76 14.6402 105.578 14.5C105.396 14.3561 105.116 14.2462 104.737 14.1705L103.226 13.8693C102.374 13.6989 101.739 13.4034 101.322 12.983C100.91 12.5625 100.703 12.0265 100.703 11.375C100.703 10.8144 100.855 10.3314 101.158 9.92614C101.464 9.52083 101.894 9.20833 102.447 8.98864C103.004 8.76894 103.656 8.65909 104.402 8.65909C105.504 8.65909 106.372 8.89205 107.004 9.35795C107.641 9.82386 108.012 10.4583 108.118 11.2614Z" fill="#212529"/>
</svg>
